<?xml version="1.0" encoding="UTF-8" standalone="no"?>
<!-- Created with Inkscape (http://www.inkscape.org/) -->

<svg
   version="1.1"
   id="svg182"
   width="1130"
   height="547"
   viewBox="0 0 1130 547"
   sodipodi:docname="WhatsApp Image 2024-04-20 at 20.27.23_6045fecd.jpg"
   inkscape:export-filename="..\..\..\Burooj\Website\assets\img\buroojTransparent.svg"
   inkscape:export-xdpi="96"
   inkscape:export-ydpi="96"
   xmlns:inkscape="http://www.inkscape.org/namespaces/inkscape"
   xmlns:sodipodi="http://sodipodi.sourceforge.net/DTD/sodipodi-0.dtd"
   xmlns="http://www.w3.org/2000/svg"
   xmlns:svg="http://www.w3.org/2000/svg">
  <defs
     id="defs186" />
  <sodipodi:namedview
     id="namedview184"
     pagecolor="#ffffff"
     bordercolor="#000000"
     borderopacity="0.25"
     inkscape:showpageshadow="2"
     inkscape:pageopacity="0.0"
     inkscape:pagecheckerboard="0"
     inkscape:deskcolor="#d1d1d1"
     showgrid="false" />
  <g
     inkscape:groupmode="layer"
     inkscape:label="Image"
     id="g188">
    <path
       style="fill:#ff0000"
       d="m 956.19906,503.74415 c -0.2727,-0.71059 -0.3711,-8.22602 -0.2187,-16.70096 l 0.2772,-15.40899 8.0336,-1.14677 c 27.5634,-3.93463 47.85834,-20.69257 57.24334,-47.26721 l 2.7137,-7.68408 0.2883,-109.25 0.2883,-109.24999 h 16.5024 16.5023 l -0.3182,110.74999 -0.3182,110.75 -2.6741,9 c -3.5062,11.80075 -5.447,16.56579 -10.186,25.00831 -10.8508,19.331 -26.7437,33.61401 -48.08134,43.21093 -10.3792,4.66816 -17.9573,6.77495 -29.6377,8.23955 -10.2928,1.29061 -9.8191,1.30201 -10.4149,-0.25078 z M 58.757561,231.03615 V 60.036149 h 16.5 16.5 v 81.500001 c 0,48.30632 0.37071,81.5 0.9102,81.5 0.50061,0 3.1015,-1.6875 5.77974,-3.75 8.060079,-6.20701 10.640949,-7.88335 17.371039,-11.2829 39.35802,-19.88084 86.64868,-12.19494 117.78128,19.14236 19.26366,19.39032 29.357,43.25327 29.56169,69.89053 0.15743,20.48774 -2.57832,32.76496 -10.99347,49.33543 -5.11668,10.07537 -9.48977,15.93227 -18.92155,25.34171 -13.68255,13.65014 -29.14738,22.30525 -48.98893,27.41733 -12.77717,3.29198 -33.10949,3.27501 -45.96391,-0.0384 -15.53055,-4.00319 -28.8798,-10.57378 -40.243339,-19.80806 -2.31399,-1.8804 -4.67649,-3.12891 -5.25,-2.77446 -0.63325,0.39141 -1.04275,5.53017 -1.04275,13.08547 v 12.44098 h -16.5 -16.5 z M 183.25756,364.65729 c 29.66475,-9.59759 49.24528,-38.30448 47.14648,-69.12115 -0.57618,-8.46006 -1.67902,-14.36707 -3.54731,-19 -8.69427,-21.55984 -22.14262,-34.98571 -42.25566,-42.18502 -9.95277,-3.56252 -27.93287,-4.38577 -39.51399,-1.80921 -4.30624,0.95804 -8.00421,1.64774 -8.21772,1.53266 -0.2135,-0.11508 -0.6635,0.16669 -1,0.62617 -0.33649,0.45948 -3.70242,2.41041 -7.47984,4.33541 -23.69163,12.07341 -39.199219,41.79297 -35.597069,68.22013 3.20558,23.51786 17.039649,43.26961 37.517389,53.56593 11.39657,5.73025 18.62814,7.16455 33.94772,6.73313 8.48862,-0.23905 12.82646,-0.90069 19,-2.89805 z m 196.46323,36.38989 c -22.94978,-3.6718 -42.50041,-13.71683 -58.73078,-30.17564 -16.70022,-16.93527 -26.49586,-37.71702 -29.25807,-62.07189 -1.81805,-16.02999 1.67767,-35.87217 9.09272,-51.6116 2.1631,-4.59145 3.9329,-8.5529 3.9329,-8.80322 0,-1.70018 17.67213,-23.35017 19.05813,-23.34798 0.24303,3.8e-4 0.44187,18.78788 0.44187,41.74999 0,46.38026 0.12416,47.4874 6.94554,61.93204 4.69684,9.94581 10.36257,17.26805 18.36352,23.73253 25.37005,20.49806 62.13837,20.78914 87.19094,0.69027 10.93546,-8.77316 17.69555,-18.49323 22.67643,-32.60554 l 2.82357,-8 0.30754,-43.75 c 0.16915,-24.06249 0.59115,-43.74999 0.93779,-43.74999 0.97672,0 7.8449,7.84801 12.72892,14.54485 16.06491,22.02778 22.30404,49.16439 17.92309,77.95514 -1.74736,11.4833 -9.84458,30.77202 -17.2114,41 -13.81799,19.18468 -35.55092,33.96382 -58.84381,40.01582 -10.8373,2.81577 -28.99621,3.99638 -38.3789,2.49522 z M 527.75756,299.53614 V 197.03615 h 16.47097 16.47098 l 0.27902,13.05927 0.27903,13.05927 7.45969,-5.65354 c 12.40437,-9.401 25.9002,-15.32182 43.35569,-19.02077 3.74845,-0.79433 9.00744,-1.44423 11.68664,-1.44423 4.76484,0 4.87811,0.071 5.18462,3.25 0.17235,1.7875 0.0884,9.325 -0.18664,16.75 l -0.5,13.5 -6.5,0.64364 c -9.12737,0.90381 -14.26215,2.40901 -23.77105,6.96821 -14.65806,7.02804 -28.21067,22.76485 -34.35187,39.88814 -2.32598,6.48546 -2.33191,6.63139 -2.6489,65.25 l -0.31769,58.75 H 544.2128 527.75756 Z m 199.96693,101.51117 c -40.0163,-6.40087 -71.24698,-32.69009 -83.85936,-70.59078 -15.66982,-47.08838 6.31333,-99.52293 51.17366,-122.06023 18.54002,-9.31429 30.97217,-11.98927 51.17209,-11.01049 16.33301,0.79141 27.45401,3.78986 42.03813,11.33434 16.36538,8.46594 33.15544,24.51788 41.12388,39.316 1.03657,1.925 2.12988,3.725 2.42959,4 0.9465,0.86849 6.88478,16.64532 8.54256,22.69589 2.50752,9.15195 3.02302,32.81546 0.95394,43.7895 -8.78528,46.59577 -49.18943,81.25516 -96.7541,82.99738 -6.20802,0.22739 -13.7772,0.0152 -16.82039,-0.47161 z m 33.03307,-35.54386 c 13.37048,-4.04111 28.30513,-14.52557 36.27709,-25.46731 14.5249,-19.93583 16.87202,-48.92961 5.78813,-71.5 -12.46241,-25.37748 -42.2371,-41.43699 -69.70173,-37.59488 -26.9236,3.76642 -47.60186,19.89277 -56.78221,44.28272 -14.59416,38.77311 8.76611,82.19434 49.09387,91.25394 8.60566,1.93324 27.4217,1.41419 35.32485,-0.97447 z m 110.5,35.03661 c -4.4,-0.714 -11.15,-2.29692 -15,-3.51758 -6.9255,-2.19576 -22.2378,-9.54228 -25.88967,-12.42132 -1.74901,-1.37887 -1.77193,-1.66003 -0.30796,-3.77739 0.86994,-1.2582 3.01414,-3.86263 4.7649,-5.78763 1.75075,-1.925 4.25183,-5.1875 5.55796,-7.25 1.30612,-2.0625 3.53138,-5.59114 4.94502,-7.84141 2.32362,-3.69882 2.73143,-3.94988 4.25,-2.61651 2.25096,1.97645 9.09574,5.37007 14.38018,7.12964 17.32101,5.7674 38.52807,4.33688 54.29277,-3.66233 14.9301,-7.57571 28.1166,-22.59246 33.4492,-38.09196 10.8301,-31.47823 -1.4778,-65.92532 -29.4441,-82.40764 -11.0783,-6.52912 -18.1027,-8.50199 -32.16878,-9.03486 -14.91291,-0.56496 -23.57557,1.12142 -34.84661,6.78367 -4.32264,2.17157 -7.92429,3.8455 -8.00366,3.71986 -4.79245,-7.58645 -12.38902,-18.33665 -15.40386,-21.7986 l -3.97991,-4.57015 6.67786,-3.92985 c 17.6769,-10.40266 37.07033,-15.16485 57.60507,-14.1453 35.31779,1.75353 67.05889,21.97391 84.48089,53.81765 18.4923,33.8 15.4076,76.85183 -7.8242,109.19903 -4.3597,6.07034 -17.563,18.6429 -24.5351,23.36302 -22.0884,14.95392 -47.9118,20.91085 -73,16.83966 z M 1024.7576,145.01138 v -17.02477 l 16.25,0.27477 16.25,0.27477 0.2742,16.75 0.2742,16.75 h -16.5242 -16.5242 z"
       id="path300" />
  </g>
</svg>
